Coordinates
version=1
nRows=8
nColumns=36
inDegrees=yes

Units are S.I. units (second, meters, Newtons, ...)
If the header above contains a line with 'inDegrees', this indicates whether rotational values are in degrees (yes) or radians (no).

endheader
time	pelvis_tilt	pelvis_list	pelvis_rotation	pelvis_tx	pelvis_ty	pelvis_tz	hip_flexion_r	hip_adduction_r	hip_rotation_r	knee_angle_r	knee_angle_r_beta	ankle_angle_r	subtalar_angle_r	mtp_angle_r	hip_flexion_l	hip_adduction_l	hip_rotation_l	knee_angle_l	knee_angle_l_beta	ankle_angle_l	subtalar_angle_l	mtp_angle_l	lumbar_extension	lumbar_bending	lumbar_rotation	arm_flex_r	arm_add_r	arm_rot_r	elbow_flex_r	pro_sup_r	arm_flex_l	arm_add_l	arm_rot_l	elbow_flex_l	pro_sup_l
     44.50000000	     -3.14679220	     -7.30684280	      1.41081247	      0.77421508	      1.02978064	      0.88169197	     10.81461096	      8.70328515	    -10.42281442	     16.09474723	      0.28090633	     13.92867411	     -0.59018408	     -7.49999987	     22.80354470	    -11.91384813	      4.33518989	     65.56521673	      1.14432891	     -1.81601346	    -11.41394123	     -7.49999987	     -5.14987232	     10.94426494	      3.50031414	      2.97398657	    -12.46773951	     -2.93246600	     20.38964830	     71.16886461	      1.46881490	     -4.26125868	     -4.59924368	     18.81797530	     68.71870726
     44.51666670	     -2.35325116	     -6.30655988	      1.22683377	      0.77032195	      1.03418129	      0.88274465	      8.79487274	      7.86121307	    -10.47884781	     15.35416819	      0.26798079	     14.45617165	      0.33887376	     -7.49999987	     23.67049438	    -11.10157245	      3.50071037	     64.52694595	      1.12620766	     -1.07200745	    -11.77040958	     -7.49999987	     -6.72835691	      9.66572355	      4.26261085	      3.84401787	    -12.69482301	     -1.79032889	     21.71663173	     70.90149122	      1.27649229	     -4.45276283	     -3.80231125	     17.95326660	     68.65067775
     44.53333330	     -1.83470770	     -5.39026222	      0.89002509	      0.76943289	      1.03659864	      0.88322775	      7.00940284	      7.12984223	    -10.00994272	     14.47094174	      0.25256558	     14.71829312	      0.79466881	     -7.49999987	     24.31208563	    -10.41884655	      2.47297762	     62.61544652	      1.09284570	     -0.32775044	    -11.71859933	     -7.49999987	     -7.80156790	      8.49741153	      4.86085902	      4.73985771	    -12.76388577	     -1.45201253	     22.67975545	     70.64244277	      0.79841244	     -4.49906168	     -3.95968977	     17.12626830	     68.36002735
     44.55000000	     -1.91095608	     -4.71855533	      0.55834597	      0.76996689	      1.03697952	      0.88337313	      5.85699996	      6.56271420	     -9.62111958	     13.65205846	      0.23827337	     14.73289912	      1.25491153	     -7.49999987	     25.33121711	     -9.86278519	      1.60831921	     60.12178770	      1.04932315	      0.59128980	    -11.59789431	     -7.49999987	     -7.90982330	      7.74532627	      5.25585083	      5.39575697	    -12.91609376	     -1.31871230	     23.37464622	     70.69056150	     -0.25807993	     -4.44524352	     -3.96042115	     16.43924977	     68.37095569
     44.56666670	     -1.30084783	     -4.03960845	      0.19321457	      0.76999861	      1.03804774	      0.88371877	      4.01240020	      5.94705349	     -9.13361234	     13.01528997	      0.22715966	     14.92878951	      1.65504365	     -7.49999987	     25.31522085	     -9.29076648	      0.55825421	     56.86674013	      0.99251185	      1.82304146	    -11.23195560	     -7.49999987	     -9.01283266	      6.97266803	      5.93551806	      5.80854567	    -13.31703333	     -0.76372770	     24.99501809	     70.77181015	     -1.11623662	     -4.36176326	     -4.07121175	     15.65878001	     68.28515042
     44.58333330	     -1.46028860	     -3.57465293	     -0.09740993	      0.76950388	      1.03784871	      0.88385524	      3.03254345	      5.49987338	     -8.83728278	     12.53485105	      0.21877442	     14.71045383	      1.77446099	     -7.49999987	     26.09737839	     -8.83041471	     -0.36786476	     53.17242872	      0.92803395	      3.05655535	    -10.87019048	     -7.49999987	     -9.02360930	      6.49325793	      6.28895661	      6.26704287	    -13.52133649	     -0.61290154	     26.08895929	     70.72805798	     -2.41583784	     -4.35521629	     -4.02435254	     15.18251087	     68.23210017
     44.60000000	     -1.41030157	     -3.16071779	     -0.26322643	      0.76739824	      1.03760754	      0.88352818	      1.83611767	      5.09097224	     -8.61079403	     12.00743624	      0.20956930	     14.45668089	      1.76417743	     -7.49999987	     26.71300675	     -8.38423814	     -1.37015155	     49.01429888	      0.85546090	      4.45127645	    -10.01227167	     -7.49999987	     -9.47378887	      6.02506399	      6.73351366	      6.59986628	    -13.85977659	     -0.24353745	     27.88095010	     70.62758316	     -3.53303365	     -4.42235882	     -3.82465528	     15.22841457	     68.11806587
     44.61666670	     -1.32666334	     -2.93062407	     -0.27737641	      0.76449975	      1.03655612	      0.88265750	      0.56348332	      4.85539519	     -8.64790806	     11.27679560	      0.19681721	     14.17185306	      1.95957737	     -7.49999987	     27.44912398	     -7.96277643	     -2.15456881	     44.61619648	      0.77869953	      5.86812547	     -8.74573503	     -7.49999987	    -10.21998365	      5.83838059	      7.38709882	      6.71305941	    -14.47344616	      0.38501949	     30.30854699	     70.27174822	     -4.46604628	     -4.53790432	     -3.00454651	     15.86672881	     67.87227441
